<?xml version="1.0" standalone="no"?>
<!DOCTYPE svg PUBLIC "-//W3C//DTD SVG 1.1//EN"
"http://www.w3.org/Graphics/SVG/1.1/DTD/svg11.dtd">

<svg width="490" height="501" view_box="0 0 490 501"
xmlns="http://www.w3.org/2000/svg"
xmlns:link="http://www.w3.org/1999/xlink">\n\n<desc>Généré par Mocodo 2.3.7 le Sun, 28 Oct 2018 12:03:23</desc>

<rect id="frame" x="0" y="0" width="490" height="501" fill="#ffffbf" stroke="none" stroke-width="0"/>

<!-- Association PROVENIR -->
<line x1="296" y1="365" x2="176" y2="365" stroke="#f46d43" stroke-width="2"/>
<text x="220" y="382.0" fill="#3288bd" font-family="Verdana" font-size="12">0,N</text>
<line x1="57" y1="365" x2="176" y2="365" stroke="#f46d43" stroke-width="2"/>
<text x="110" y="382.0" fill="#3288bd" font-family="Verdana" font-size="12">1,1</text>
<g id="association-PROVENIR">
	<path d="M 201 340 a 14 14 90 0 1 14 14 V 365 h -78 V 354 a 14 14 90 0 1 14 -14" fill="#fdae61" stroke="#fdae61" stroke-width="0"/>
	<path d="M 215 365.0 v 11 a 14 14 90 0 1 -14 14 H 151 a 14 14 90 0 1 -14 -14 V 365.0 H 78" fill="#fee08b" stroke="#fee08b" stroke-width="0"/>
	<rect x="137" y="340" width="78" height="50" fill="none" rx="14" stroke="#f46d43" stroke-width="2"/>
	<line x1="137" y1="365" x2="215" y2="365" stroke="#f46d43" stroke-width="1"/>
	<text x="144" y="357.7" fill="#000000" font-family="Verdana" font-size="12">PROVENIR</text>
</g>

<!-- Association ASSOCIER -->
<line x1="176" y1="111" x2="296" y2="111" stroke="#f46d43" stroke-width="2"/>
<text x="225" y="128.0" fill="#3288bd" font-family="Verdana" font-size="12">1,1</text>
<line x1="429" y1="111" x2="296" y2="111" stroke="#f46d43" stroke-width="2"/>
<text x="376" y="128.0" fill="#3288bd" font-family="Verdana" font-size="12">0,N</text>
<g id="association-ASSOCIER">
	<path d="M 321 86 a 14 14 90 0 1 14 14 V 111 h -78 V 100 a 14 14 90 0 1 14 -14" fill="#fdae61" stroke="#fdae61" stroke-width="0"/>
	<path d="M 335 111.0 v 11 a 14 14 90 0 1 -14 14 H 271 a 14 14 90 0 1 -14 -14 V 111.0 H 78" fill="#fee08b" stroke="#fee08b" stroke-width="0"/>
	<rect x="257" y="86" width="78" height="50" fill="none" rx="14" stroke="#f46d43" stroke-width="2"/>
	<line x1="257" y1="111" x2="335" y2="111" stroke="#f46d43" stroke-width="1"/>
	<text x="264" y="103.7" fill="#000000" font-family="Verdana" font-size="12">ASSOCIER</text>
</g>

<!-- Association AJOUTER -->
<line x1="176" y1="111" x2="57" y2="111" stroke="#f46d43" stroke-width="2"/>
<text x="105" y="128.0" fill="#3288bd" font-family="Verdana" font-size="12">0,N</text>
<line x1="57" y1="365" x2="57" y2="111" stroke="#f46d43" stroke-width="2"/>
<text x="62.0" y="264" fill="#3288bd" font-family="Verdana" font-size="12">0,N</text>
<g id="association-AJOUTER">
	<path d="M 83 69 a 14 14 90 0 1 14 14 V 94 h -80 V 83 a 14 14 90 0 1 14 -14" fill="#fdae61" stroke="#fdae61" stroke-width="0"/>
	<path d="M 97 94.0 v 45 a 14 14 90 0 1 -14 14 H 31 a 14 14 90 0 1 -14 -14 V 94.0 H 80" fill="#fee08b" stroke="#fee08b" stroke-width="0"/>
	<rect x="17" y="69" width="80" height="84" fill="none" rx="14" stroke="#f46d43" stroke-width="2"/>
	<line x1="17" y1="94" x2="97" y2="94" stroke="#f46d43" stroke-width="1"/>
	<text x="29" y="86.7" fill="#000000" font-family="Verdana" font-size="12">AJOUTER</text>
	<text x="24" y="111.8" fill="#000000" font-family="Verdana" font-size="12">date_ajout</text>
	<text x="24" y="128.8" fill="#000000" font-family="Verdana" font-size="12">etat_a</text>
	<text x="24" y="145.8" fill="#000000" font-family="Verdana" font-size="12">etiquette</text>
</g>

<!-- Association CATÉGORISER -->
<line x1="296" y1="365" x2="429" y2="365" stroke="#f46d43" stroke-width="2"/>
<text x="350" y="382.0" fill="#3288bd" font-family="Verdana" font-size="12">0,1</text>
<line x1="429" y1="111" x2="429" y2="365" stroke="#f46d43" stroke-width="2"/>
<text x="434.0" y="162" fill="#3288bd" font-family="Verdana" font-size="12">0,N</text>
<g id="association-CATÉGORISER">
	<path d="M 467 340 a 14 14 90 0 1 14 14 V 365 h -104 V 354 a 14 14 90 0 1 14 -14" fill="#fdae61" stroke="#fdae61" stroke-width="0"/>
	<path d="M 481 365.0 v 11 a 14 14 90 0 1 -14 14 H 391 a 14 14 90 0 1 -14 -14 V 365.0 H 104" fill="#fee08b" stroke="#fee08b" stroke-width="0"/>
	<rect x="377" y="340" width="104" height="50" fill="none" rx="14" stroke="#f46d43" stroke-width="2"/>
	<line x1="377" y1="365" x2="481" y2="365" stroke="#f46d43" stroke-width="1"/>
	<text x="384" y="357.7" fill="#000000" font-family="Verdana" font-size="12">CATÉGORISER</text>
</g>

<!-- Entity ARTICLE -->
<g id="entity-ARTICLE">
	<g id="frame-ARTICLE">
		<rect x="9" y="272" width="96" height="25" fill="#abdda4" stroke="#abdda4" stroke-width="0"/>
		<rect x="9" y="297.0" width="96" height="161" fill="#e6f598" stroke="#e6f598" stroke-width="0"/>
		<rect x="9" y="272" width="96" height="186" fill="none" stroke="#66c2a5" stroke-width="2"/>
		<line x1="9" y1="297" x2="105" y2="297" stroke="#66c2a5" stroke-width="1"/>
	</g>
	<text x="30" y="289.7" fill="#000000" font-family="Verdana" font-size="12">ARTICLE</text>
	<text x="14" y="314.7" fill="#000000" font-family="Verdana" font-size="12">id_a</text>
	<line x1="14" y1="317" x2="41" y2="317" stroke="#000000" stroke-width="1"/>
	<text x="14" y="331.7" fill="#000000" font-family="Verdana" font-size="12">titre</text>
	<text x="14" y="348.7" fill="#000000" font-family="Verdana" font-size="12">date_parution</text>
	<text x="14" y="365.8" fill="#000000" font-family="Verdana" font-size="12">date_recup</text>
	<text x="14" y="382.8" fill="#000000" font-family="Verdana" font-size="12">lien_origine</text>
	<text x="14" y="399.8" fill="#000000" font-family="Verdana" font-size="12">img</text>
	<text x="14" y="416.8" fill="#000000" font-family="Verdana" font-size="12">desc</text>
	<text x="14" y="433.8" fill="#000000" font-family="Verdana" font-size="12">auteur</text>
	<text x="14" y="450.8" fill="#000000" font-family="Verdana" font-size="12">etat_a</text>
</g>

<!-- Entity SPORT -->
<g id="entity-SPORT">
	<g id="frame-SPORT">
		<rect x="403" y="77" width="52" height="25" fill="#abdda4" stroke="#abdda4" stroke-width="0"/>
		<rect x="403" y="102.0" width="52" height="43" fill="#e6f598" stroke="#e6f598" stroke-width="0"/>
		<rect x="403" y="77" width="52" height="68" fill="none" stroke="#66c2a5" stroke-width="2"/>
		<line x1="403" y1="102" x2="455" y2="102" stroke="#66c2a5" stroke-width="1"/>
	</g>
	<text x="408" y="94.7" fill="#000000" font-family="Verdana" font-size="12">SPORT</text>
	<text x="408" y="119.8" fill="#000000" font-family="Verdana" font-size="12">id_s</text>
	<line x1="408" y1="122" x2="434" y2="122" stroke="#000000" stroke-width="1"/>
	<text x="408" y="136.8" fill="#000000" font-family="Verdana" font-size="12">nom_s</text>
</g>

<!-- Entity USERS -->
<g id="entity-USERS">
	<g id="frame-USERS">
		<rect x="132" y="9" width="88" height="25" fill="#abdda4" stroke="#abdda4" stroke-width="0"/>
		<rect x="132" y="34.0" width="88" height="179" fill="#e6f598" stroke="#e6f598" stroke-width="0"/>
		<rect x="132" y="9" width="88" height="204" fill="none" stroke="#66c2a5" stroke-width="2"/>
		<line x1="132" y1="34" x2="220" y2="34" stroke="#66c2a5" stroke-width="1"/>
	</g>
	<text x="155" y="26.7" fill="#000000" font-family="Verdana" font-size="12">USERS</text>
	<text x="137" y="51.7" fill="#000000" font-family="Verdana" font-size="12">id_u</text>
	<line x1="137" y1="54" x2="164" y2="54" stroke="#000000" stroke-width="1"/>
	<text x="137" y="68.7" fill="#000000" font-family="Verdana" font-size="12">nom_u</text>
	<text x="137" y="85.7" fill="#000000" font-family="Verdana" font-size="12">login</text>
	<text x="137" y="102.7" fill="#000000" font-family="Verdana" font-size="12">mdp</text>
	<text x="137" y="119.8" fill="#000000" font-family="Verdana" font-size="12">mail</text>
	<text x="137" y="136.8" fill="#000000" font-family="Verdana" font-size="12">nom_club</text>
	<text x="137" y="153.8" fill="#000000" font-family="Verdana" font-size="12">url_site_club</text>
	<text x="137" y="170.8" fill="#000000" font-family="Verdana" font-size="12">logo</text>
	<text x="137" y="187.8" fill="#000000" font-family="Verdana" font-size="12">niveau_u</text>
	<text x="137" y="204.8" fill="#000000" font-family="Verdana" font-size="12">etat_u</text>
</g>

<!-- Entity FLUX -->
<g id="entity-FLUX">
	<g id="frame-FLUX">
		<rect x="247" y="238" width="98" height="25" fill="#abdda4" stroke="#abdda4" stroke-width="0"/>
		<rect x="247" y="263.0" width="98" height="229" fill="#e6f598" stroke="#e6f598" stroke-width="0"/>
		<rect x="247" y="238" width="98" height="254" fill="none" stroke="#66c2a5" stroke-width="2"/>
		<line x1="247" y1="263" x2="345" y2="263" stroke="#66c2a5" stroke-width="1"/>
	</g>
	<text x="280" y="255.7" fill="#000000" font-family="Verdana" font-size="12">FLUX</text>
	<text x="252" y="280.7" fill="#000000" font-family="Verdana" font-size="12">id_f</text>
	<line x1="252" y1="283" x2="276" y2="283" stroke="#000000" stroke-width="1"/>
	<text x="252" y="297.7" fill="#000000" font-family="Verdana" font-size="12">url_origine</text>
	<text x="252" y="314.7" fill="#000000" font-family="Verdana" font-size="12">url_rss</text>
	<text x="252" y="331.7" fill="#000000" font-family="Verdana" font-size="12">titre</text>
	<text x="252" y="348.7" fill="#000000" font-family="Verdana" font-size="12">nom_orga</text>
	<text x="252" y="365.8" fill="#000000" font-family="Verdana" font-size="12">url_orga</text>
	<text x="252" y="382.8" fill="#000000" font-family="Verdana" font-size="12">peri_maj</text>
	<text x="252" y="399.8" fill="#000000" font-family="Verdana" font-size="12">acti_maj</text>
	<text x="252" y="416.8" fill="#000000" font-family="Verdana" font-size="12">last_maj</text>
	<text x="252" y="433.8" fill="#000000" font-family="Verdana" font-size="12">last_maj_succ</text>
	<text x="252" y="450.8" fill="#000000" font-family="Verdana" font-size="12">since_succ</text>
	<text x="252" y="467.8" fill="#000000" font-family="Verdana" font-size="12">msg_last_maj</text>
	<text x="252" y="484.8" fill="#000000" font-family="Verdana" font-size="12">etat_f</text>
</g>
</svg>